<?xml version="1.0" standalone="no"?><!DOCTYPE svg PUBLIC "-//W3C//DTD SVG 1.1//EN" "http://www.w3.org/Graphics/SVG/1.1/DTD/svg11.dtd"><svg class="icon" width="200px" height="200.00px" viewBox="0 0 1024 1024" version="1.1" xmlns="http://www.w3.org/2000/svg"><path fill="#333333" d="M937.796267 482.1504c0.3072-1.1776 0.6656-2.304 0.7168-3.5328 0.017067-0.256 0.1536-0.477867 0.1536-0.750933C938.666667 248.32 756.445867 60.637867 529.066667 51.626667V17.066667a17.066667 17.066667 0 1 0-34.133334 0v34.56C267.554133 60.637867 85.333333 248.32 85.333333 477.866667c0 0.273067 0.136533 0.494933 0.1536 0.768 0.0512 1.211733 0.392533 2.338133 0.7168 3.5328 0.273067 1.006933 0.426667 2.013867 0.853334 2.935466 0.426667 0.904533 1.092267 1.655467 1.672533 2.474667 0.7168 1.006933 1.3824 2.013867 2.304 2.850133 0.187733 0.170667 0.273067 0.426667 0.477867 0.597334 0.6144 0.512 1.365333 0.682667 2.013866 1.092266 1.006933 0.631467 1.962667 1.262933 3.106134 1.672534 1.194667 0.443733 2.4064 0.580267 3.6352 0.733866 0.733867 0.068267 1.3824 0.4096 2.133333 0.4096 0.256 0 0.4608-0.136533 0.7168-0.136533 1.297067-0.0512 2.5088-0.4096 3.754667-0.750933 0.9216-0.256 1.860267-0.392533 2.696533-0.802134 0.9728-0.443733 1.774933-1.160533 2.6624-1.792 0.938667-0.682667 1.8944-1.314133 2.679467-2.167466 0.187733-0.2048 0.443733-0.290133 0.631466-0.512C139.605333 459.7248 171.3152 443.733333 204.8 443.733333s65.194667 15.991467 89.258667 45.038934c0.324267 0.392533 0.8192 0.546133 1.1776 0.904533 0.4096 0.4096 0.6144 0.955733 1.0752 1.3312 0.682667 0.5632 1.501867 0.768 2.218666 1.211733 0.8704 0.529067 1.672533 1.058133 2.594134 1.399467a16.042667 16.042667 0 0 0 4.2496 0.9216c0.631467 0.068267 1.211733 0.392533 1.826133 0.392533 0.273067 0 0.529067-0.119467 0.785067-0.136533 0.8704-0.034133 1.672533-0.256 2.525866-0.426667a15.991467 15.991467 0 0 0 3.413334-1.006933 15.394133 15.394133 0 0 0 2.4064-1.3824c0.5632-0.3584 1.194667-0.546133 1.723733-0.989867 0.4096-0.341333 0.597333-0.8192 0.9728-1.194666 0.392533-0.392533 0.9216-0.597333 1.28-1.041067C344.405333 459.7248 376.1152 443.733333 409.6 443.733333c31.744 0 61.781333 14.506667 85.333333 40.721067V938.666667c0 28.228267-22.971733 51.2-51.2 51.2s-51.2-22.971733-51.2-51.2a17.066667 17.066667 0 1 0-34.133333 0c0 47.0528 38.280533 85.333333 85.333333 85.333333s85.333333-38.280533 85.333334-85.333333V484.4544C552.618667 458.24 582.656 443.733333 614.4 443.733333c33.4848 0 65.194667 15.991467 89.258667 45.038934 0.324267 0.392533 0.8192 0.546133 1.1776 0.904533 0.4096 0.4096 0.6144 0.955733 1.0752 1.3312 0.682667 0.5632 1.501867 0.750933 2.218666 1.194667 0.8704 0.529067 1.672533 1.058133 2.6112 1.416533a16.4352 16.4352 0 0 0 4.2496 0.9216c0.6144 0.068267 1.194667 0.392533 1.809067 0.392533 0.273067 0 0.529067-0.119467 0.785067-0.136533 0.8704-0.034133 1.6896-0.256 2.542933-0.443733 1.160533-0.238933 2.286933-0.512 3.396267-0.989867a16.162133 16.162133 0 0 0 2.423466-1.3824c0.5632-0.3584 1.194667-0.546133 1.723734-0.9728 0.4096-0.341333 0.597333-0.8192 0.955733-1.194667 0.392533-0.392533 0.9216-0.597333 1.297067-1.041066C754.005333 459.7248 785.7152 443.733333 819.2 443.733333s65.194667 15.991467 89.258667 45.038934c0.170667 0.2048 0.4096 0.256 0.597333 0.4608 1.194667 1.314133 2.628267 2.304 4.181333 3.208533 0.529067 0.3072 0.938667 0.768 1.501867 1.006933A16.9984 16.9984 0 0 0 921.6 494.933333a16.759467 16.759467 0 0 0 6.161067-1.245866c0.768-0.3072 1.399467-0.802133 2.116266-1.211734 0.8704-0.494933 1.809067-0.8192 2.594134-1.4848 0.2048-0.170667 0.290133-0.4096 0.477866-0.597333 0.9216-0.836267 1.570133-1.826133 2.304-2.850133 0.580267-0.8192 1.245867-1.5872 1.672534-2.474667 0.443733-0.904533 0.6144-1.911467 0.8704-2.9184zM819.2 409.6c-37.853867 0-73.591467 15.274667-102.4 43.246933C687.991467 424.874667 652.253867 409.6 614.4 409.6s-73.591467 15.274667-102.4 43.246933C483.191467 424.874667 447.453867 409.6 409.6 409.6s-73.591467 15.274667-102.4 43.246933C278.391467 424.874667 242.653867 409.6 204.8 409.6c-29.866667 0-58.333867 9.659733-83.2 27.392C142.114133 239.684267 309.367467 85.333333 512 85.333333s369.885867 154.350933 390.4 351.658667C877.533867 419.259733 849.066667 409.6 819.2 409.6z"  /></svg>