<?xml version="1.0" standalone="no"?><!DOCTYPE svg PUBLIC "-//W3C//DTD SVG 1.1//EN" "http://www.w3.org/Graphics/SVG/1.1/DTD/svg11.dtd"><svg class="icon" width="200px" height="200.00px" viewBox="0 0 1024 1024" version="1.1" xmlns="http://www.w3.org/2000/svg"><path fill="#333333" d="M999.592902 991.251373L712.326619 692.501398c73.271365-73.484026 118.664812-174.787972 118.664812-286.512304 0-223.873986-182.115108-405.989094-405.989094-405.989094s-405.989094 182.115108-405.989094 405.989094 182.115108 405.989094 405.989094 405.989095c98.268694 0 188.456271-35.127723 258.750383-93.416158l287.962264 299.484622a19.294148 19.294148 0 0 0 27.336599 0.541319 19.332814 19.332814 0 0 0 0.541319-27.336599zM425.002337 773.312561c-202.549892 0-367.323466-164.773574-367.323466-367.323467s164.773574-367.323466 367.323466-367.323466 367.323466 164.773574 367.323466 367.323466-164.792907 367.323466-367.323466 367.323467z"  /></svg>