<?xml version="1.0" standalone="no"?><!DOCTYPE svg PUBLIC "-//W3C//DTD SVG 1.1//EN" "http://www.w3.org/Graphics/SVG/1.1/DTD/svg11.dtd"><svg class="icon" width="200px" height="200.00px" viewBox="0 0 1024 1024" version="1.1" xmlns="http://www.w3.org/2000/svg"><path fill="#333333" d="M1024 512c0-76.168533-50.176-140.8-119.1936-162.696533 33.348267-64.273067 23.108267-145.476267-30.754133-199.338667-53.879467-53.8624-135.0656-64.0512-199.338667-30.737067C652.834133 50.193067 588.168533 0 512 0c-76.168533 0-140.817067 50.193067-162.696533 119.227733-64.290133-33.3312-145.493333-23.0912-199.338667 30.737067-53.8624 53.8624-64.1024 135.048533-30.754133 199.338667C50.176 371.182933 0 435.831467 0 512s50.176 140.817067 119.210667 162.696533c-33.3312 64.273067-23.108267 145.476267 30.754133 199.338667a170.069333 170.069333 0 0 0 120.6784 49.902933 170.837333 170.837333 0 0 0 78.6432-19.1488C371.182933 973.806933 435.831467 1024 512 1024s140.817067-50.193067 162.696533-119.210667a170.837333 170.837333 0 0 0 78.660267 19.1488 170.154667 170.154667 0 0 0 120.6784-49.902933c53.8624-53.8624 64.1024-135.0656 30.754133-199.338667C973.824 652.8 1024 588.168533 1024 512zM34.133333 512c0-64.4096 44.885333-118.408533 104.977067-132.693333a170.666667 170.666667 0 0 0 10.8544 12.014933L270.6432 512l-120.6784 120.6784a170.666667 170.666667 0 0 0-10.8544 12.014933C79.018667 630.408533 34.133333 576.4096 34.133333 512z m284.791467 0L341.333333 489.591467v44.834133L318.9248 512zM341.333333 582.690133V648.533333h-158.941866l112.401066-112.401066L341.333333 582.690133z m-46.557866-94.8224L182.391467 375.466667H341.333333v65.8432l-46.557866 46.557866z m-120.6784 362.0352c-45.533867-45.533867-51.985067-115.456-19.6096-168.055466 5.341867 0.494933 10.717867 0.8192 16.1792 0.8192h170.666666v170.666666c0 5.461333 0.3072 10.837333 0.8192 16.1792-52.616533 32.375467-122.5216 25.924267-168.055466-19.6096zM341.333333 170.666667v170.666666H170.666667c-5.461333 0-10.837333 0.324267-16.1792 0.8192-32.375467-52.599467-25.924267-122.504533 19.6096-168.055466a136.533333 136.533333 0 0 1 168.055466-19.6096c-0.512 5.341867-0.8192 10.717867-0.8192 16.1792z m170.666667-136.533334c64.4096 0 118.408533 44.885333 132.7104 104.977067a170.666667 170.666667 0 0 0-12.014933 10.8544L512 270.6432l-120.6784-120.6784a174.574933 174.574933 0 0 0-12.014933-10.8544C393.591467 79.018667 447.5904 34.133333 512 34.133333z m22.4256 307.2h-44.834133L512 318.9248 534.4256 341.333333zM375.466667 182.391467l112.401066 112.401066L441.309867 341.333333H375.466667v-158.941866zM375.466667 375.466667h31.709866L375.466667 407.176533V375.466667z m0 241.3568L407.176533 648.533333H375.466667v-31.709866zM375.466667 682.666667h65.8432l46.557866 46.557866L375.466667 841.608533V682.666667z m136.533333 307.2c-64.4096 0-118.408533-44.885333-132.7104-104.977067a170.666667 170.666667 0 0 0 12.014933-10.8544L512 753.3568l120.6784 120.6784c3.857067 3.857067 7.901867 7.441067 12.014933 10.8544C630.408533 944.981333 576.4096 989.866667 512 989.866667z m-22.408533-307.2h44.834133L512 705.0752 489.591467 682.666667zM648.533333 841.608533l-112.401066-112.401066L582.690133 682.666667H648.533333v158.941866zM648.533333 648.533333h-31.709866L648.533333 616.823467V648.533333z m0-79.9744L568.558933 648.533333h-113.1008L375.466667 568.541867v-113.1008L455.458133 375.466667h113.1008L648.533333 455.441067v113.117866z m0-161.3824L616.823467 375.466667H648.533333v31.709866zM648.533333 341.333333h-65.8432l-46.557866-46.557866L648.533333 182.391467V341.333333z m104.840534-207.1552c34.9696 0 69.9392 13.294933 96.546133 39.918934 45.533867 45.533867 51.985067 115.456 19.6096 168.055466A175.291733 175.291733 0 0 0 853.333333 341.333333H682.666667V170.666667c0-5.461333-0.3072-10.837333-0.8192-16.1792a136.533333 136.533333 0 0 1 71.5264-20.309334z m-24.149334 401.954134L841.6256 648.533333H682.666667v-65.8432l46.557866-46.557866z m-46.557866-1.706667v-44.8512L705.092267 512 682.666667 534.4256z m0-93.115733V375.466667h158.958933l-112.401067 112.401066L682.666667 441.309867z m167.253333 408.593066c-45.568 45.533867-115.473067 51.985067-168.072533 19.6096 0.512-5.341867 0.8192-10.717867 0.8192-16.1792V682.666667h170.666666c5.461333 0 10.8544-0.324267 16.196267-0.8192 32.375467 52.599467 25.924267 122.504533-19.6096 168.055466z m34.986667-205.2096a170.666667 170.666667 0 0 0-10.8544-12.014933L753.3568 512l120.695467-120.6784a170.666667 170.666667 0 0 0 10.8544-12.014933C944.9984 393.608533 989.866667 447.607467 989.866667 512s-44.868267 118.391467-104.96 132.693333z"  /></svg>