<?xml version="1.0" standalone="no"?><!DOCTYPE svg PUBLIC "-//W3C//DTD SVG 1.1//EN" "http://www.w3.org/Graphics/SVG/1.1/DTD/svg11.dtd"><svg class="icon" width="200px" height="200.00px" viewBox="0 0 1024 1024" version="1.1" xmlns="http://www.w3.org/2000/svg"><path fill="#333333" d="M953.161989 110.48857c0-59.853978-48.329746-108.994021-108.039671-110.308504V0h-664.624041a109.768306 109.768306 0 0 0-109.660266 109.660266v914.339734l342.125624-228.071745 342.125624 228.071745V450.165295h198.07273V110.48857z m-234.085953 846.238728l-306.112401-204.086938-306.112401 204.086938V109.660266A73.737075 73.737075 0 0 1 180.498277 36.013224H756.99796a125.920236 125.920236 0 0 0-35.382992 65.021875l-0.018007 0.05402A123.525357 123.525357 0 0 0 719.076036 126.046283V956.727298z m198.07273-542.575227h-162.059507V126.046283c0-6.122248 0.630231-12.082437 1.800662-17.862559a90.645284 90.645284 0 0 1 67.128648-69.415489c0.648238-0.16206 1.22445-0.450165 1.872688-0.576211 4.375607-0.972357 8.967293-1.314483 13.558979-1.602589 1.494549-0.090033 2.917071-0.432159 4.429626-0.450165 40.44285 0.666245 73.268903 33.870437 73.268904 74.3493V414.152071z"  /></svg>