<?xml version="1.0" standalone="no"?><!DOCTYPE svg PUBLIC "-//W3C//DTD SVG 1.1//EN" "http://www.w3.org/Graphics/SVG/1.1/DTD/svg11.dtd"><svg class="icon" width="200px" height="200.00px" viewBox="0 0 1024 1024" version="1.1" xmlns="http://www.w3.org/2000/svg"><path fill="#333333" d="M512 885.152542a17.355932 17.355932 0 0 0 17.355932-17.355932V295.050847a17.355932 17.355932 0 1 0-34.711864 0v572.745763a17.355932 17.355932 0 0 0 17.355932 17.355932zM338.440678 885.152542a17.355932 17.355932 0 0 0 17.355932-17.355932V295.050847a17.355932 17.355932 0 1 0-34.711864 0v572.745763a17.355932 17.355932 0 0 0 17.355932 17.355932zM685.559322 885.152542a17.355932 17.355932 0 0 0 17.355932-17.355932V295.050847a17.355932 17.355932 0 1 0-34.711864 0v572.745763a17.355932 17.355932 0 0 0 17.355932 17.355932z"  /><path fill="#333333" d="M911.186441 104.135593H667.439729c-1.909153-21.694915-8.591186-58.28122-31.466305-81.763796C621.498576 7.532475 603.136 0 581.406373 0H407.864407c-21.729627 0-40.092203 7.532475-54.567051 22.371797C330.422237 45.854373 323.740203 82.440678 321.831051 104.135593H112.813559a17.355932 17.355932 0 1 0 0 34.711865h35.423458l33.23661 798.737356C182.115797 967.471729 200.721356 1024 266.656542 1024h490.686916c65.935186 0 84.540746-56.528271 85.165559-86.050712L875.762983 138.847458H911.186441a17.355932 17.355932 0 1 0 0-34.711865zM378.220475 46.531254C385.995932 38.582237 395.697898 34.711864 407.864407 34.711864h173.541966c12.166508 0 21.868475 3.870373 29.643932 11.81939 13.971525 14.283932 19.577492 39.415322 21.521356 57.604339H356.716475c1.943864-18.189017 7.549831-43.320407 21.504-57.604339z m429.594033 890.32461C807.710373 942.218847 805.315254 989.288136 757.343458 989.288136H266.656542c-47.451119 0-50.297492-47.156068-50.488406-52.796746L182.966237 138.847458h658.05017l-33.201899 798.008406z"  /></svg>