<?xml version="1.0" standalone="no"?><!DOCTYPE svg PUBLIC "-//W3C//DTD SVG 1.1//EN" "http://www.w3.org/Graphics/SVG/1.1/DTD/svg11.dtd"><svg class="icon" width="200px" height="200.00px" viewBox="0 0 1024 1024" version="1.1" xmlns="http://www.w3.org/2000/svg"><path fill="#333333" d="M512 890.167719c-20.655685 0-50.891279-23.233667-70.942252-25.366072-57.193013 47.9632-116.773047 105.697272-197.772613 135.710077-35.359732 14.990489-65.722634 23.679244-73.615715 14.226643-10.598371-12.317026-26.607323-29.408094-29.439921-33.991173 0.159135-6.810965 8.402312-1.432212 17.37751-11.107602 48.886182-20.560204 80.458507-73.615715 101.687077-138.479021C106.174673 754.425815 2.76894 610.47256 2.76894 445.163427 2.76894 199.427614 230.777147 0.190962 512 0.190962s509.23106 199.204825 509.23106 444.972465S793.222853 890.167719 512 890.167719z" /></svg>