<?xml version="1.0" standalone="no"?><!DOCTYPE svg PUBLIC "-//W3C//DTD SVG 1.1//EN" "http://www.w3.org/Graphics/SVG/1.1/DTD/svg11.dtd"><svg class="icon" width="200px" height="200.00px" viewBox="0 0 1024 1024" version="1.1" xmlns="http://www.w3.org/2000/svg"><path fill="#333333" d="M961.711254 62.288746c-83.063499-83.063499-218.170418-83.063499-301.216161 0l-161.048726 161.048726c-61.738304 61.738304-77.488053 152.223895-47.426807 228.7176a213.53605 213.53605 0 0 0-78.056252-14.755401 211.423062 211.423062 0 0 0-150.590324 62.146696l-161.066481 161.048726c-83.045743 83.045743-83.045743 218.170418 0 301.216161 41.513993 41.53175 96.061037 62.288746 150.60808 62.288746s109.094087-20.756997 150.60808-62.288746l161.048726-161.048726c61.738304-61.738304 77.488053-152.223895 47.426808-228.7176 24.521311 9.606104 50.853754 14.755401 78.056251 14.755401a211.476331 211.476331 0 0 0 150.60808-62.146696l161.066482-161.048726c83.027987-83.045743 83.027987-218.170418-0.017756-301.216161z m-462.264887 713.266517l-161.048725 161.048725c-69.195908 69.178152-181.787966 69.178152-251.00163 0-69.178152-69.195908-69.178152-181.787966 0-251.00163l161.066481-161.048725a176.194763 176.194763 0 0 1 125.483059-51.741564c41.549506 0 80.808462 14.027397 112.307959 39.827154l-152.507993 152.507994a17.738443 17.738443 0 1 0 25.107265 25.107265l152.490238-152.490237c57.015155 69.639813 53.055523 172.821085-11.896654 237.791018z m437.157621-437.157621l-161.066481 161.048725a176.194763 176.194763 0 0 1-125.500815 51.741564c-41.549506 0-80.790706-14.027397-112.30796-39.827154l152.507994-152.507994a17.738443 17.738443 0 1 0-25.107265-25.107265l-152.490238 152.490237c-56.997399-69.657569-53.037767-172.838842 11.91441-237.808774l161.048725-161.048725A177.047061 177.047061 0 0 1 811.103173 35.512398c45.45587 0 90.911739 17.312294 125.500815 51.90137 69.213664 69.195908 69.213664 181.787966 0 250.983874z"  /></svg>